:FULLY-SPECIFIED
:FORCE-ALL-JOINTS-BE-3DOF
:DEGREES
79
root 0.567678 17.4315 5.75419 0.468583 4.71608 2.94855
lfemur -16.3235 -3.25892 -27.111
ltibia 41.7783 0 0
lfoot -15.1043 -0.903255 0
ltoes -15.981 0 0
rfemur -12.6976 -11.6856 15.949
rtibia 105.163 0 0
rfoot 22.8505 -6.56767 0
rtoes 24.1826 0 0
lowerback 18.0085 -0.767809 -5.09559
upperback 3.04521 -2.15817 -2.60361
thorax -6.71121 -0.956253 0.601227
lowerneck -6.38769 -0.965011 -2.03363
upperneck -9.46455 -0.944492 4.53003
head -1.83611 -0.459909 1.76319
lclavicle 4.0421e-15 4.1189e-14 0
lhumerus -25.2623 -14.7679 85.7253
lradius 106.733 0 0
lwrist 29.6739 0 0
lhand -36.2499 7.91505 0
lfingers 7.12502 0 0
lthumb -9.35088 37.686 0
rclavicle 4.0421e-15 4.1189e-14 0
rhumerus -47.2908 6.40334 -85.2739
rradius 80.2018 0 0
rwrist 1.11485 0 0
rhand -44.6138 38.0969 0
rfingers 7.12502 0 0
rthumb -17.412 8.8565 0
80
root 0.568352 17.4353 6.29352 0.392388 4.90814 3.08606
lfemur -15.9539 -3.50301 -27.3788
ltibia 40.7881 0 0
lfoot -15.3789 -0.822177 0
ltoes -16.0419 0 0
rfemur -12.76 -11.8386 15.7153
rtibia 105.879 0 0
rfoot 23.3461 -6.56732 0
rtoes 24.6918 0 0
lowerback 17.9979 -0.775708 -5.22279
upperback 3.04686 -2.19851 -2.66672
thorax -6.70243 -0.972885 0.615164
lowerneck -6.48763 -1.00979 -2.07443
upperneck -9.31221 -0.992099 4.62839
head -1.77691 -0.486069 1.80352
lclavicle 4.0819e-15 4.15288e-14 0
lhumerus -24.945 -14.8996 85.576
lradius 106.793 0 0
lwrist 29.5627 0 0
lhand -36.196 7.79872 0
lfingers 7.12502 0 0
lthumb -9.2989 37.5725 0
rclavicle 4.0819e-15 4.15288e-14 0
rhumerus -47.5691 6.32606 -85.2175
rradius 79.871 0 0
rwrist 1.15335 0 0
rhand -44.6207 38.1051 0
rfingers 7.12502 0 0
rthumb -17.4187 8.86545 0
81
root 0.569026 17.4391 6.83285 0.32188 5.05989 3.20317
lfemur -15.5931 -3.69338 -27.5947
ltibia 40.0059 0 0
lfoot -15.5455 -0.749466 0
ltoes -16.0817 0 0
rfemur -12.8219 -11.9465 15.5278
rtibia 106.391 0 0
rfoot 23.7299 -6.5671 0
rtoes 25.1222 0 0
lowerback 17.9873 -0.784258 -5.32354
upperback 3.04618 -2.23347 -2.71576
thorax -6.6965 -0.987477 0.627938
lowerneck -6.57827 -1.04276 -2.10716
upperneck -9.1728 -1.02634 4.70008
head -1.72262 -0.505223 1.83391
lclavicle 4.05323e-15 4.1803e-14 0
lhumerus -24.704 -15.0248 85.4598
lradius 106.843 0 0
lwrist 29.4604 0 0
lhand -36.1503 7.69653 0
lfingers 7.12502 0 0
lthumb -9.2548 37.4727 0
rclavicle 4.05323e-15 4.1803e-14 0
rhumerus -47.7993 6.2669 -85.1658
rradius 79.5968 0 0
rwrist 1.18 0 0
rhand -44.6255 38.1128 0
rfingers 7.12502 0 0
rthumb -17.4233 8.87363 0
82
root 0.5697 17.4429 7.37217 0.257387 5.16901 3.29866
lfemur -15.242 -3.82692 -27.7557
ltibia 39.444 0 0
lfoot -15.5981 -0.685689 0
ltoes -16.0993 0 0
rfemur -12.8827 -12.0066 15.3892
rtibia 106.686 0 0
rfoot 23.9957 -6.56702 0
rtoes 25.4695 0 0
lowerback 17.9767 -0.793474 -5.39628
upperback 3.04306 -2.26272 -2.74993
thorax -6.69352 -0.999896 0.639457
lowerneck -6.65905 -1.06328 -2.13136
upperneck -9.04714 -1.04648 4.74359
head -1.67355 -0.516982 1.85377
lclavicle 3.9527e-15 4.20085e-14 0
lhumerus -24.544 -15.1429 85.3785
lradius 106.882 0 0
lwrist 29.3676 0 0
lhand -36.1132 7.60935 0
lfingers 7.12502 0 0
lthumb -9.21902 37.3875 0
rclavicle 3.9527e-15 4.20085e-14 0
rhumerus -47.9785 6.22688 -85.1192
rradius 79.3825 0 0
rwrist 1.19418 0 0
rhand -44.628 38.1199 0
rfingers 7.12502 0 0
rthumb -17.4257 8.88096 0
83
root 0.570374 17.4467 7.9115 0.199232 5.2332 3.37129
lfemur -14.9019 -3.90054 -27.8586
ltibia 39.1145 0 0
lfoot -15.5306 -0.631412 0
ltoes -16.0937 0 0
rfemur -12.9419 -12.0167 15.3021
rtibia 106.754 0 0
rfoot 24.1372 -6.56712 0
rtoes 25.729 0 0
lowerback 17.966 -0.803372 -5.43948
upperback 3.03742 -2.2859 -2.76841
thorax -6.69363 -1.01001 0.649631
lowerneck -6.7294 -1.07068 -2.14657
upperneck -8.93604 -1.05178 4.7574
head -1.63002 -0.520954 1.86256
lclavicle 3.77691e-15 4.21423e-14 0
lhumerus -24.4696 -15.2533 85.3341
lradius 106.908 0 0
lwrist 29.285 0 0
lhand -36.0852 7.53806 0
lfingers 7.12502 0 0
lthumb -9.19204 37.3177 0
rclavicle 3.77691e-15 4.21423e-14 0
rhumerus -48.1038 6.20701 -85.078
rradius 79.2314 0 0
rwrist 1.19524 0 0
rhand -44.6279 38.1263 0
rfingers 7.12502 0 0
rthumb -17.4256 8.88735 0
84
root 0.57509 17.448 8.45252 0.146435 5.25536 3.42384
lfemur -14.5599 -3.91814 -27.9087
ltibia 38.9994 0 0
lfoot -15.3459 -0.584341 0
ltoes -16.0643 0 0
rfemur -13.0068 -11.9769 15.2623
rtibia 106.605 0 0
rfoot 24.1605 -6.56709 0
rtoes 25.908 0 0
lowerback 17.9552 -0.814333 -5.45543
upperback 3.02885 -2.30409 -2.77219
thorax -6.69721 -1.01826 0.658969
lowerneck -6.79102 -1.06544 -2.15338
upperneck -8.83648 -1.04262 4.74284
head -1.59095 -0.517409 1.86086
lclavicle 3.51998e-15 4.21996e-14 0
lhumerus -24.4721 -15.3609 85.3234
lradius 106.925 0 0
lwrist 29.2092 0 0
lhand -36.0654 7.4801 0
lfingers 7.12502 0 0
lthumb -9.17296 37.2608 0
rclavicle 3.51998e-15 4.21996e-14 0
rhumerus -48.1824 6.20647 -85.0414
rradius 79.1371 0 0
rwrist 1.18322 0 0
rhand -44.6264 38.1327 0
rfingers 7.12502 0 0
rthumb -17.4242 8.89362 0
85
root 0.579806 17.4494 8.99354 0.0977027 5.24104 3.46034
lfemur -14.2032 -3.88713 -27.9146
ltibia 39.0673 0 0
lfoot -15.0542 -0.541693 0
ltoes -16.0121 0 0
rfemur -13.0847 -11.8905 15.2628
rtibia 106.263 0 0
rfoot 24.0791 -6.56663 0
rtoes 26.0185 0 0
lowerback 17.9443 -0.826678 -5.44814
upperback 3.01712 -2.31868 -2.76319
thorax -6.70446 -1.02523 0.668042
lowerneck -6.84613 -1.04881 -2.15292
upperneck -8.7447 -1.0203 4.70302
head -1.55499 -0.507087 1.84993
lclavicle 3.18089e-15 4.218e-14 0
lhumerus -24.5378 -15.4709 85.3409
lradius 106.937 0 0
lwrist 29.1364 0 0
lhand -36.0524 7.43202 0
lfingers 7.12502 0 0
lthumb -9.16038 37.2135 0
rclavicle 3.18089e-15 4.218e-14 0
rhumerus -48.2246 6.22324 -85.0085
rradius 79.0896 0 0
rwrist 1.15896 0 0
rhand -44.6247 38.1399 0
rfingers 7.12502 0 0
rthumb -17.4225 8.90064 0
86
root 0.584522 17.4507 9.53457 0.0528883 5.19188 3.48149
lfemur -13.8328 -3.80971 -27.8783
ltibia 39.3099 0 0
lfoot -14.6605 -0.5033 0
ltoes -15.9382 0 0
rfemur -13.1749 -11.7596 15.3016
rtibia 105.737 0 0
rfoot 23.8978 -6.56575 0
rtoes 26.0635 0 0
lowerback 17.9334 -0.840338 -5.41867
upperback 3.00239 -2.32984 -2.74199
thorax -6.7152 -1.03095 0.676856
lowerneck -6.89498 -1.02132 -2.14551
upperneck -8.66042 -0.985417 4.63909
head -1.52203 -0.490298 1.8302
lclavicle 2.76358e-15 4.20869e-14 0
lhumerus -24.6638 -15.5831 85.3853
lradius 106.943 0 0
lwrist 29.0666 0 0
lhand -36.0458 7.39343 0
lfingers 7.12502 0 0
lthumb -9.15402 37.1754 0
rclavicle 2.76358e-15 4.20869e-14 0
rhumerus -48.2322 6.25654 -84.9791
rradius 79.0867 0 0
rwrist 1.12301 0 0
rhand -44.6227 38.1478 0
rfingers 7.12502 0 0
rthumb -17.4206 8.90837 0
87
root 0.589238 17.4521 10.0756 0.0118466 5.10953 3.48798
lfemur -13.4494 -3.68809 -27.8017
ltibia 39.719 0 0
lfoot -14.1698 -0.468998 0
ltoes -15.8436 0 0
rfemur -13.2767 -11.5864 15.3769
rtibia 105.035 0 0
rfoot 23.6212 -6.56447 0
rtoes 26.046 0 0
lowerback 17.9223 -0.85524 -5.36807
upperback 2.9848 -2.3377 -2.70916
thorax -6.72926 -1.03549 0.685416
lowerneck -6.93781 -0.983491 -2.13147
upperneck -8.58336 -0.938576 4.55222
head -1.49197 -0.467353 1.80208
lclavicle 2.27198e-15 4.19238e-14 0
lhumerus -24.8473 -15.6974 85.4555
lradius 106.944 0 0
lwrist 28.9996 0 0
lhand -36.0453 7.36392 0
lfingers 7.12502 0 0
lthumb -9.15359 37.146 0
rclavicle 2.27198e-15 4.19238e-14 0
rhumerus -48.2066 6.30558 -84.953
rradius 79.1263 0 0
rwrist 1.07595 0 0
rhand -44.6205 38.1563 0
rfingers 7.12502 0 0
rthumb -17.4185 8.91677 0
88
root 0.593954 17.4534 10.6166 -0.0255681 4.99563 3.4805
lfemur -13.0541 -3.52446 -27.6869
ltibia 40.2863 0 0
lfoot -13.5871 -0.438619 0
ltoes -15.7293 0 0
rfemur -13.3895 -11.3731 15.4871
rtibia 104.168 0 0
rfoot 23.2543 -6.56281 0
rtoes 25.9691 0 0
lowerback 17.9112 -0.871313 -5.29736
upperback 2.9645 -2.34243 -2.66528
thorax -6.74648 -1.0389 0.693726
lowerneck -6.97489 -0.935845 -2.11114
upperneck -8.51324 -0.880387 4.44357
head -1.46468 -0.438564 1.766
lclavicle 1.71002e-15 4.16941e-14 0
lhumerus -25.0853 -15.8135 85.55
lradius 106.94 0 0
lwrist 28.9353 0 0
lhand -36.0507 7.34308 0
lfingers 7.12502 0 0
lthumb -9.15883 37.1251 0
rclavicle 1.71002e-15 4.16941e-14 0
rhumerus -48.1494 6.36957 -84.9302
rradius 79.2065 0 0
rwrist 1.01834 0 0
rhand -44.6182 38.1656 0
rfingers 7.12502 0 0
rthumb -17.4162 8.9258 0
